<?xml version="1.0" encoding="utf-8"?>
<!-- Generator: Adobe Illustrator 22.0.1, SVG Export Plug-In . SVG Version: 6.00 Build 0)  -->
<svg version="1.1" xmlns="http://www.w3.org/2000/svg" xmlns:xlink="http://www.w3.org/1999/xlink" x="0px" y="0px"
	 viewBox="0 0 312 202.5" style="enable-background:new 0 0 312 202.5;" xml:space="preserve">
<style type="text/css">
	.st0{fill:#4AACC9;}
	.st1{fill:#242943;}
	.st2{fill:#FFFFFF;}
	.st3{display:none;}
	.st4{display:inline;opacity:0.42;fill:#CE4E4D;}
	.st5{display:inline;opacity:0.42;fill:#CCB64E;}
	.st6{opacity:0.24;fill:#B3378C;}
</style>
<g id="bg">
	<rect x="-0.8" y="-2.3" class="st0" width="314.8" height="206.3"/>
</g>
<g id="sze">
	<path id="sze_logo__x23_242943" class="st1" d="M56.8,58c0-1,0.1-1.3,1.3-1.4c8.7-0.5,15.8-4.1,21.2-11c3.8-4.8,5.7-10.2,6-16.3
		c0.1-1.3,1.2-1.2,2-1.2c1.2,0,0.9,0.7,0.9,1.4c-0.7,14-10.4,25.8-24,29.1c-1.9,0.5-3.9,0.7-5.9,0.8C56.8,59.7,56.8,59.6,56.8,58z
		 M82.4,29.6c0.1-0.7,0.1-1.3-1-1.3c-0.8,0-1.8-0.2-1.9,1.2c0,2.4-0.5,4.7-1.5,6.9c-3.8,9-10.5,14-20.2,14.6c-1.4,0.1-1.1,1.2-1,1.9
		c0.1,1,0.5,1,1.2,0.9c1.2-0.1,2.3-0.2,3.5-0.4c11.2-2,20-11.7,20.8-23.1C82.3,30.1,82.4,29.8,82.4,29.6z M130.3,32.8
		c1.4,0,2.8,0.5,4.1,1.5l1.7-2.5c-0.8-0.6-1.6-1.1-2.7-1.5c-1-0.3-2-0.5-3.1-0.5c-1.6,0-2.9,0.4-3.9,1.2c-1,0.8-1.6,1.9-1.6,3.3
		c0,1.4,0.4,2.5,1.2,3.2c0.8,0.7,2.1,1.2,3.9,1.6c1.1,0.3,1.9,0.5,2.2,0.8c0.4,0.3,0.6,0.6,0.6,1.1c0,0.5-0.2,0.8-0.5,1.1
		c-0.4,0.3-0.8,0.4-1.5,0.4c-1.4,0-2.9-0.7-4.6-2.2l-2,2.5c1.9,1.8,4.1,2.7,6.5,2.7c1.7,0,3-0.4,4-1.3c1-0.9,1.5-2,1.5-3.3
		c0-1.4-0.4-2.4-1.2-3.1c-0.8-0.7-1.9-1.2-3.4-1.6c-1.4-0.4-2.4-0.7-2.8-0.9c-0.4-0.3-0.6-0.6-0.6-1.1c0-0.4,0.2-0.8,0.5-1.1
		C129.3,32.9,129.7,32.8,130.3,32.8z M151.2,45.4v-3h-8.1l8-9.9v-2.4h-12.4v2.9h7.7l-8,10v2.3H151.2z M154.1,30.1v15.2h11.2v-3h-7.8
		v-3.2h6.8v-2.9h-6.8v-3.1h7.6v-3H154.1z M163.9,26.1l-3.4-1.4l-2.8,3.9h3.1L163.9,26.1z M172.3,41.1c-0.9-0.9-1.3-2-1.3-3.4
		c0-1.4,0.5-2.5,1.4-3.4c0.9-0.8,2-1.3,3.3-1.3c1.6,0,2.9,0.7,4,2l2.1-2.4c-1.7-1.9-3.8-2.9-6.3-2.9c-2.2,0-4.1,0.8-5.7,2.3
		c-1.5,1.5-2.3,3.4-2.3,5.7c0,2.3,0.8,4.1,2.3,5.6c1.5,1.5,3.5,2.2,5.8,2.2c2.3,0,4.4-1,6.1-2.9l-2.2-2.2c-1.1,1.3-2.4,2-4.1,2
		C174.2,42.4,173.1,41.9,172.3,41.1z M193.8,36.5h-6.1v-6.4h-3.4v15.2h3.4v-6h6.1v6h3.4V30.1h-3.4V36.5z M200.9,30.1v15.2h11.2v-3
		h-7.8v-3.2h6.8v-2.9h-6.8v-3.1h7.6v-3H200.9z M225.9,39.9l-7.5-9.8h-3.2v15.2h3.4v-9.5l7.3,9.5h3.4V30.1h-3.4V39.9z M239.6,39.3
		l5.3-9.2h-3.7l-3.3,5.7l-3.3-5.7h-3.7l5.3,9.2v6h3.4V39.3z M246.5,45.4h3.4V30.1h-3.4V45.4z M125.4,48.8V64h11.2v-3h-7.8v-3.2h6.8
		V55h-6.8v-3.1h7.6v-3H125.4z M149.8,60.4c-0.8,0.5-1.8,0.7-2.9,0.7c-1.2,0-2.2-0.4-3-1.3c-0.9-0.9-1.3-2-1.3-3.5s0.4-2.6,1.3-3.5
		c0.9-0.9,2-1.3,3.3-1.3c0.7,0,1.3,0.1,1.9,0.3c0.6,0.2,1.2,0.6,1.9,1.2l1.8-2.5c-1.6-1.4-3.5-2.2-5.7-2.2c-2.2,0-4.1,0.8-5.6,2.3
		c-1.5,1.5-2.3,3.4-2.3,5.7c0,2.3,0.8,4.1,2.3,5.6c1.5,1.5,3.4,2.2,5.6,2.2c2.7,0,4.8-0.8,6.3-2.5v-5.4h-3.4V60.4z M162.8,58
		l5.3-9.2h-3.7l-3.3,5.7l-3.3-5.7h-3.7l5.3,9.2v6h3.4V58z M169.9,48.8V64h11.2v-3h-7.8v-3.2h6.8V55h-6.8v-3.1h7.6v-3H169.9z
		 M195.2,51.7v-2.9h-12v2.9h4.3V64h3.4V51.7H195.2z M197.9,48.8V64h11.2v-3h-7.8v-3.2h6.8V55h-6.8v-3.1h7.6v-3H197.9z M226,64h3.4
		V48.8h-4.6l-3.9,8.4l-3.9-8.4h-4.6V64h3.4v-9.6l4.1,8.3h2l4.1-8.3V64z M125,73.7V70h-1.1v3.7c0,1,0.3,1.7,0.8,2.2
		c0.5,0.5,1.2,0.8,2,0.8c0.8,0,1.5-0.3,2-0.8c0.5-0.5,0.8-1.2,0.8-2.2V70h-1.1v3.7c0,0.6-0.2,1.1-0.5,1.4c-0.3,0.4-0.7,0.5-1.2,0.5
		c-0.5,0-0.9-0.2-1.2-0.5C125.2,74.8,125,74.3,125,73.7z M136.2,75l-3.8-4.9h-1.1v6.6h1.1v-4.8l3.7,4.8h1.2V70h-1.1V75z M139.2,76.7
		h1.1V70h-1.1V76.7z M147.8,70h-1.2l-2,4.9l-2-4.9h-1.2l2.7,6.6h1.2L147.8,70z M148.7,70v6.6h4.8v-1.1h-3.6v-1.8h3.2v-1h-3.2v-1.8
		h3.5V70H148.7z M159.6,70.6c-0.4-0.3-1.2-0.5-2.2-0.5h-2.5v6.6h1.1v-2.2h1.5l1.6,2.2h1.4l-1.7-2.4c1-0.3,1.4-1,1.4-2.1
		C160.2,71.4,160,70.9,159.6,70.6z M157.4,73.4h-1.4v-2.4h1.4c0.6,0,1,0.1,1.2,0.2c0.2,0.2,0.4,0.5,0.4,0.9c0,0.4-0.1,0.7-0.3,0.9
		C158.5,73.3,158.1,73.4,157.4,73.4z M164.8,71.1c0.3,0.1,0.6,0.3,0.8,0.4l0.6-0.8c-0.3-0.3-0.7-0.4-1.1-0.6
		c-0.4-0.1-0.8-0.2-1.3-0.2c-0.7,0-1.2,0.2-1.7,0.5c-0.4,0.3-0.7,0.8-0.7,1.4c0,0.6,0.2,1.1,0.6,1.4c0.2,0.2,0.4,0.3,0.7,0.4
		c0.3,0.1,0.6,0.2,1.1,0.3c0.5,0.1,0.8,0.2,1,0.4c0.2,0.1,0.3,0.3,0.3,0.6c0,0.3-0.1,0.5-0.3,0.6c-0.2,0.2-0.5,0.2-0.9,0.2
		c-0.7,0-1.4-0.3-2.1-0.9l-0.7,0.8c0.8,0.7,1.7,1.1,2.8,1.1c0.7,0,1.3-0.2,1.7-0.5c0.4-0.4,0.7-0.8,0.7-1.4s-0.2-1-0.5-1.3
		c-0.3-0.3-0.9-0.5-1.5-0.7c-0.7-0.2-1.1-0.3-1.3-0.5s-0.3-0.3-0.3-0.6s0.1-0.5,0.3-0.6c0.2-0.1,0.5-0.2,0.8-0.2
		C164.2,70.9,164.5,71,164.8,71.1z M167.8,76.7h1.1V70h-1.1V76.7z M175.2,71.1v-1h-5.1v1h2v5.6h1.1v-5.6H175.2z M179.1,74.1l2.5-4
		h-1.2l-1.8,3l-1.8-3h-1.2l2.5,4v2.6h1.1V74.1z M191.5,73.3c0-1-0.3-1.8-1-2.4c-0.7-0.7-1.5-1-2.5-1c-1,0-1.8,0.3-2.5,1
		c-0.7,0.7-1,1.5-1,2.4c0,1,0.3,1.8,1,2.4c0.7,0.7,1.5,1,2.5,1c1,0,1.8-0.3,2.5-1C191.2,75.1,191.5,74.3,191.5,73.3z M190.4,73.3
		c0,0.7-0.2,1.2-0.7,1.7c-0.5,0.5-1,0.7-1.7,0.7s-1.2-0.2-1.7-0.7c-0.5-0.5-0.7-1-0.7-1.7c0-0.7,0.2-1.2,0.7-1.7
		c0.5-0.5,1-0.7,1.7-0.7s1.2,0.2,1.7,0.7C190.1,72.1,190.4,72.6,190.4,73.3z M197.3,71.1l0-1h-4.4v6.6h1.1v-2.7h2.9v-1H194v-1.8
		H197.3z M205.8,75.3c-0.4,0.3-0.9,0.4-1.6,0.4c-0.6,0-1.2-0.2-1.6-0.6c-0.4-0.4-0.7-1-0.7-1.7c0-0.7,0.2-1.3,0.7-1.7
		c0.5-0.4,1-0.6,1.7-0.6c0.3,0,0.7,0,0.9,0.1c0.3,0.1,0.5,0.2,0.8,0.5l0.6-0.9c-0.6-0.6-1.4-0.8-2.4-0.8s-1.8,0.3-2.4,1
		c-0.7,0.7-1,1.5-1,2.5c0,1,0.3,1.8,1,2.4c0.7,0.6,1.5,1,2.5,1c1.2,0,2.1-0.3,2.7-1v-2.3h-1.1V75.3z M210.9,74.1l2.5-4h-1.2l-1.8,3
		l-1.8-3h-1.2l2.5,4v2.6h1.1V74.1z M220.7,73.3c0-1-0.3-1.8-1-2.4c-0.7-0.7-1.5-1-2.5-1c-1,0-1.8,0.3-2.5,1c-0.7,0.7-1,1.5-1,2.4
		c0,1,0.3,1.8,1,2.4c0.7,0.7,1.5,1,2.5,1c1,0,1.8-0.3,2.5-1C220.4,75.1,220.7,74.3,220.7,73.3z M219.6,73.3c0,0.7-0.2,1.2-0.7,1.7
		c-0.5,0.5-1,0.7-1.7,0.7s-1.2-0.2-1.7-0.7c-0.5-0.5-0.7-1-0.7-1.7c0-0.7,0.2-1.2,0.7-1.7c0.5-0.5,1-0.7,1.7-0.7s1.2,0.2,1.7,0.7
		C219.4,72.1,219.6,72.6,219.6,73.3z M226.8,70.6c-0.4-0.3-1.2-0.5-2.2-0.5h-2.5v6.6h1.1v-2.2h1.5l1.6,2.2h1.4l-1.7-2.4
		c1-0.3,1.4-1,1.4-2.1C227.4,71.4,227.2,70.9,226.8,70.6z M224.6,73.4h-1.4v-2.4h1.4c0.6,0,1,0.1,1.2,0.2c0.2,0.2,0.4,0.5,0.4,0.9
		c0,0.4-0.1,0.7-0.3,0.9C225.7,73.3,225.3,73.4,224.6,73.4z M105.2,30.7v-2.5c0-0.2-0.2-0.3-0.3-0.3H93.6c-0.2,0-0.3,0.2-0.3,0.3
		v2.5c0,0.2,0.2,0.3,0.3,0.3h11.2C105.1,31,105.2,30.9,105.2,30.7z M105.2,36.4v-2.5c0-0.2-0.2-0.3-0.3-0.3H93.6
		c-0.2,0-0.3,0.2-0.3,0.3v2.5c0,0.2,0.2,0.3,0.3,0.3h11.2C105.1,36.7,105.2,36.6,105.2,36.4z M105.2,42.1v-2.5
		c0-0.2-0.2-0.3-0.3-0.3H93.6c-0.2,0-0.3,0.2-0.3,0.3v2.5c0,0.2,0.2,0.3,0.3,0.3h11.2C105.1,42.4,105.2,42.3,105.2,42.1z
		 M105.2,47.8v-2.5c0-0.2-0.2-0.3-0.3-0.3H93.6c-0.2,0-0.3,0.2-0.3,0.3v2.5c0,0.2,0.2,0.3,0.3,0.3h11.2
		C105.1,48.1,105.2,48,105.2,47.8z M105.2,53.5V51c0-0.2-0.2-0.3-0.3-0.3H93.6c-0.2,0-0.3,0.2-0.3,0.3v2.5c0,0.2,0.2,0.3,0.3,0.3
		h11.2C105.1,53.8,105.2,53.7,105.2,53.5z M105.2,59.2v-2.5c0-0.2-0.2-0.3-0.3-0.3H93.6c-0.2,0-0.3,0.2-0.3,0.3v2.5
		c0,0.2,0.2,0.3,0.3,0.3h11.2C105.1,59.5,105.2,59.4,105.2,59.2z M105.2,64.9v-2.5c0-0.2-0.2-0.3-0.3-0.3H93.6
		c-0.2,0-0.3,0.2-0.3,0.3v2.5c0,0.2,0.2,0.3,0.3,0.3h11.2C105.1,65.3,105.2,65.1,105.2,64.9z M105.2,70.6v-2.5
		c0-0.2-0.2-0.3-0.3-0.3H93.6c-0.2,0-0.3,0.2-0.3,0.3v2.5c0,0.2,0.2,0.3,0.3,0.3h11.2C105.1,71,105.2,70.8,105.2,70.6z M105.2,76.3
		v-2.5c0-0.2-0.2-0.3-0.3-0.3H93.6c-0.2,0-0.3,0.2-0.3,0.3v2.5c0,0.2,0.2,0.3,0.3,0.3h11.2C105.1,76.7,105.2,76.5,105.2,76.3z
		 M87.7,64.9v-2.5c0-0.2-0.2-0.3-0.3-0.3H44.9c-0.2,0-0.3,0.2-0.3,0.3v2.5c0,0.2,0.2,0.3,0.3,0.3h42.5
		C87.5,65.3,87.7,65.1,87.7,64.9z M87.7,76.3v-2.5c0-0.2-0.2-0.3-0.3-0.3H44.9c-0.2,0-0.3,0.2-0.3,0.3v2.5c0,0.2,0.2,0.3,0.3,0.3
		h42.5C87.5,76.7,87.7,76.5,87.7,76.3z M218.9,68.1l-0.8-0.4l-0.8,1.6h0.8L218.9,68.1z M217.4,68l-0.8-0.3l-0.8,1.6h0.8L217.4,68z
		 M250.3,76.3v-2.5c0-0.2-0.2-0.3-0.3-0.3h-15.2c-0.2,0-0.3,0.2-0.3,0.3v2.5c0,0.2,0.2,0.3,0.3,0.3h15.2
		C250.1,76.7,250.3,76.5,250.3,76.3z"/>
	<path id="sze_vilagos__x23_50ADC9" class="st2" d="M87.7,70.6v-2.5c0-0.2-0.2-0.3-0.3-0.3H57.9c-0.2,0-0.3,0.2-0.3,0.3v2.5
		c0,0.2,0.2,0.3,0.3,0.3h29.4C87.5,71,87.7,70.8,87.7,70.6z"/>
</g>
<g id="tanszek">
	<circle id="tsz_vilagos" class="st2" cx="81.1" cy="136.8" r="5"/>
	<path id="tanszek_1_" class="st1" d="M125.1,125.7h3.1v14.1h-3.1V125.7z M141.1,125.7h3.1v14.1h-3.1l-6.7-8.8v8.8h-3.1v-14.1h2.9
		l6.9,9.1V125.7z M156.9,125.7v2.8h-6.5v3h6.2v2.8h-6.2v5.5h-3.1v-14.1H156.9z M170.9,137.8c-1.4,1.4-3.2,2.1-5.3,2.1
		c-2.1,0-3.8-0.7-5.3-2.1c-1.4-1.4-2.1-3.1-2.1-5.2s0.7-3.8,2.1-5.2c1.4-1.4,3.2-2.1,5.3-2.1c2.1,0,3.8,0.7,5.3,2.1s2.1,3.1,2.1,5.2
		S172.4,136.4,170.9,137.8z M169.9,132.6c0-1.3-0.4-2.3-1.2-3.2c-0.8-0.9-1.8-1.3-3-1.3s-2.2,0.4-3,1.3c-0.8,0.9-1.2,2-1.2,3.2
		s0.4,2.3,1.2,3.2c0.8,0.9,1.8,1.3,3,1.3s2.2-0.4,3-1.3S169.9,133.9,169.9,132.6z M186.7,130.3c0,2.3-0.9,3.7-2.7,4.4l3.6,5h-3.9
		l-3.1-4.5h-2.2v4.5h-3.1v-14.1h5.3c2.2,0,3.8,0.4,4.7,1.1C186.2,127.5,186.7,128.7,186.7,130.3z M182.9,132
		c0.4-0.3,0.6-0.9,0.6-1.7s-0.2-1.3-0.6-1.6s-1.1-0.4-2.1-0.4h-2.4v4.2h2.3C181.8,132.5,182.5,132.4,182.9,132z M202.1,130.9
		l-3.8,7.7h-1.9l-3.8-7.7v8.9h-3.1v-14.1h4.3l3.6,7.7l3.7-7.7h4.2v14.1h-3.1V130.9z M218.2,139.8l-1.3-3H211l-1.3,3h-3.3l6.1-14.1h3
		l6.1,14.1H218.2z M214,129.8l-1.8,4.1h3.5L214,129.8z M228.7,128.4v11.4h-3.1v-11.4h-4v-2.7h11.1v2.7H228.7z M234.5,125.7h3.1v14.1
		h-3.1V125.7z M240.6,125.7h3.1v5.8l5.3-5.8h3.9l-5.6,6.2c0.5,0.7,1.4,1.9,2.7,3.8c1.3,1.8,2.3,3.2,2.9,4.1h-3.7l-4.1-5.6l-1.4,1.6
		v4h-3.1V125.7z M264.5,139.8l-1.3-3h-5.9l-1.3,3h-3.3l6.1-14.1h3l6.1,14.1H264.5z M260.3,129.8l-1.8,4.1h3.5L260.3,129.8z M131,148
		v11.4h-3.1V148h-4v-2.7H135v2.7H131z M146.9,159.4l-1.3-3h-5.9l-1.3,3H135l6.1-14.1h3l6.1,14.1H146.9z M142.6,149.5l-1.8,4.1h3.5
		L142.6,149.5z M161.3,145.3h3.1v14.1h-3.1l-6.7-8.8v8.8h-3.1v-14.1h2.9l6.9,9.1V145.3z M170.7,148.1c-0.3,0.2-0.5,0.6-0.5,1
		s0.2,0.7,0.6,1s1.2,0.5,2.6,0.9s2.4,0.8,3.1,1.5c0.7,0.7,1.1,1.6,1.1,2.9s-0.5,2.3-1.4,3.1c-0.9,0.8-2.2,1.2-3.7,1.2
		c-2.2,0-4.2-0.8-6-2.5l1.9-2.3c1.5,1.3,2.9,2,4.2,2c0.6,0,1-0.1,1.4-0.4c0.3-0.2,0.5-0.6,0.5-1c0-0.4-0.2-0.8-0.5-1
		c-0.3-0.2-1-0.5-2.1-0.8c-1.6-0.4-2.8-0.9-3.6-1.5s-1.1-1.6-1.1-2.9s0.5-2.4,1.4-3.1c1-0.7,2.2-1.1,3.6-1.1c0.9,0,1.9,0.2,2.8,0.5
		s1.8,0.8,2.5,1.4l-1.6,2.3c-1.2-0.9-2.5-1.4-3.8-1.4C171.4,147.7,171,147.8,170.7,148.1z M179,159.4v-2.2l7.4-9.2h-7.1v-2.7h11.4
		v2.2l-7.4,9.2h7.5v2.7H179z M203.2,145.3v2.8h-7v2.9h6.3v2.7h-6.3v2.9h7.2v2.8H193v-14.1H203.2z M199.3,143.8h-2.9l2.6-3.6l3.1,1.3
		L199.3,143.8z M205.7,145.3h3.1v5.8l5.3-5.8h3.9l-5.6,6.2c0.5,0.7,1.4,1.9,2.7,3.8c1.3,1.8,2.3,3.2,2.9,4.1h-3.7l-4.1-5.6l-1.4,1.6
		v4h-3.1V145.3z M127.2,166.6c0.4,0.4,0.6,0.9,0.6,1.6s-0.2,1.2-0.6,1.6s-1,0.6-1.9,0.6h-1.4V166h1.5
		C126.2,166,126.8,166.2,127.2,166.6z M127.1,168.2c0-1-0.6-1.5-1.7-1.5h-0.7v3h0.8c0.5,0,0.9-0.1,1.2-0.4
		C127,169.1,127.1,168.7,127.1,168.2z M131.9,166v0.7h-2.3v1.2h2.1v0.7h-2.1v1.2h2.4v0.7h-3.1V166H131.9z M135.8,166.4
		c0.3,0.3,0.5,0.6,0.5,1.2c0,0.5-0.2,0.9-0.5,1.2c-0.3,0.2-0.8,0.4-1.4,0.4h-0.8v1.3h-0.7V166h1.5C135,166,135.5,166.2,135.8,166.4z
		 M135.3,168.2c0.1-0.2,0.2-0.4,0.2-0.7s-0.1-0.5-0.3-0.6c-0.2-0.1-0.5-0.2-0.9-0.2h-0.7v1.7h0.9
		C134.9,168.4,135.1,168.4,135.3,168.2z M137.7,169.4l-0.4,1h-0.8l1.9-4.3h0.8l1.9,4.3h-0.8l-0.4-1H137.7z M139.6,168.7l-0.8-1.8
		l-0.8,1.8H139.6z M145.2,167.4c0,0.7-0.3,1.2-0.9,1.4l1.1,1.6h-0.9l-1-1.5h-1v1.5h-0.7V166h1.6c0.7,0,1.1,0.1,1.4,0.3
		C145.1,166.6,145.2,167,145.2,167.4z M144.2,168.1c0.1-0.1,0.2-0.3,0.2-0.6c0-0.3-0.1-0.5-0.2-0.6c-0.2-0.1-0.4-0.2-0.8-0.2h-0.9
		v1.6h0.9C143.8,168.3,144.1,168.2,144.2,168.1z M147.9,166.7v3.7h-0.7v-3.7h-1.3V166h3.4v0.7H147.9z M150.8,170.4H150V166h1.1
		l1.3,2.7l1.3-2.7h1.1v4.3h-0.7V167l-1.5,3h-0.4l-1.5-3V170.4z M159.2,166v0.7h-2.3v1.2h2.1v0.7h-2.1v1.2h2.4v0.7h-3.1V166H159.2z
		 M163.5,166h0.7v4.3h-0.8l-2.5-3.2v3.2h-0.7V166h0.7l2.5,3.2V166z M167,166.7v3.7h-0.7v-3.7H165V166h3.4v0.7H167z M174.5,169.8
		c-0.4,0.4-1,0.6-1.6,0.6s-1.2-0.2-1.6-0.6c-0.4-0.4-0.7-1-0.7-1.6c0-0.6,0.2-1.2,0.7-1.6s1-0.6,1.6-0.6s1.2,0.2,1.6,0.6
		c0.4,0.4,0.7,1,0.7,1.6C175.1,168.8,174.9,169.4,174.5,169.8z M174,167.1c-0.3-0.3-0.7-0.5-1.1-0.5c-0.4,0-0.8,0.2-1.1,0.5
		c-0.3,0.3-0.4,0.7-0.4,1.1c0,0.4,0.1,0.8,0.4,1.1c0.3,0.3,0.7,0.5,1.1,0.5c0.4,0,0.8-0.2,1.1-0.5c0.3-0.3,0.4-0.7,0.4-1.1
		C174.4,167.7,174.2,167.4,174,167.1z M176.8,166.7v1.2h1.9v0.7h-1.9v1.8h-0.7V166h2.9l0,0.7H176.8z M183.5,169.7
		c0.3,0,0.5,0,0.7-0.1c0.2-0.1,0.4-0.2,0.6-0.4l0.5,0.5c-0.5,0.5-1,0.8-1.7,0.8c-0.7,0-1.2-0.2-1.6-0.6c-0.4-0.4-0.6-1-0.6-1.6
		s0.2-1.2,0.7-1.6c0.4-0.4,1-0.6,1.7-0.6c0.7,0,1.2,0.2,1.7,0.7l-0.5,0.5c-0.2-0.2-0.4-0.3-0.6-0.4c-0.2-0.1-0.4-0.1-0.7-0.1
		c-0.4,0-0.8,0.1-1.1,0.4c-0.3,0.3-0.4,0.6-0.4,1.1s0.1,0.8,0.4,1.1C182.8,169.6,183.1,169.7,183.5,169.7z M189.7,169.8
		c-0.4,0.4-1,0.6-1.6,0.6s-1.2-0.2-1.6-0.6c-0.4-0.4-0.7-1-0.7-1.6c0-0.6,0.2-1.2,0.7-1.6s1-0.6,1.6-0.6s1.2,0.2,1.6,0.6
		c0.4,0.4,0.7,1,0.7,1.6C190.4,168.8,190.2,169.4,189.7,169.8z M189.2,167.1c-0.3-0.3-0.7-0.5-1.1-0.5c-0.4,0-0.8,0.2-1.1,0.5
		c-0.3,0.3-0.4,0.7-0.4,1.1c0,0.4,0.1,0.8,0.4,1.1c0.3,0.3,0.7,0.5,1.1,0.5c0.4,0,0.8-0.2,1.1-0.5c0.3-0.3,0.4-0.7,0.4-1.1
		C189.7,167.7,189.5,167.4,189.2,167.1z M192.1,170.4h-0.7V166h1.1l1.3,2.7l1.3-2.7h1.1v4.3h-0.7V167l-1.5,3h-0.4l-1.5-3V170.4z
		 M200.4,166.4c0.3,0.3,0.5,0.6,0.5,1.2c0,0.5-0.2,0.9-0.5,1.2c-0.3,0.2-0.8,0.4-1.4,0.4h-0.8v1.3h-0.7V166h1.5
		C199.6,166,200.1,166.2,200.4,166.4z M199.9,168.2c0.1-0.2,0.2-0.4,0.2-0.7s-0.1-0.5-0.3-0.6c-0.2-0.1-0.5-0.2-0.9-0.2h-0.7v1.7
		h0.9C199.4,168.4,199.7,168.4,199.9,168.2z M202.7,169.4c0.2,0.2,0.5,0.3,0.8,0.3s0.6-0.1,0.8-0.3c0.2-0.2,0.3-0.5,0.3-0.9V166h0.7
		v2.4c0,0.6-0.2,1.1-0.5,1.4c-0.3,0.3-0.8,0.5-1.3,0.5c-0.5,0-1-0.2-1.3-0.5c-0.3-0.3-0.5-0.8-0.5-1.4V166h0.7v2.4
		C202.4,168.8,202.5,169.2,202.7,169.4z M208.1,166.7v3.7h-0.7v-3.7h-1.3V166h3.4v0.7H208.1z M213.3,166v0.7H211v1.2h2.1v0.7H211
		v1.2h2.4v0.7h-3.1V166H213.3z M217.8,167.4c0,0.7-0.3,1.2-0.9,1.4l1.1,1.6H217l-1-1.5h-1v1.5h-0.7V166h1.6c0.7,0,1.1,0.1,1.4,0.3
		S217.8,167,217.8,167.4z M216.8,168.1c0.1-0.1,0.2-0.3,0.2-0.6c0-0.3-0.1-0.5-0.2-0.6s-0.4-0.2-0.8-0.2H215v1.6h0.9
		C216.3,168.3,216.6,168.2,216.8,168.1z M221.8,166.6c-0.2,0-0.4,0-0.5,0.1s-0.2,0.2-0.2,0.4s0.1,0.3,0.2,0.4
		c0.1,0.1,0.4,0.2,0.9,0.3c0.4,0.1,0.8,0.3,1,0.5c0.2,0.2,0.3,0.5,0.3,0.9c0,0.4-0.1,0.7-0.4,0.9s-0.7,0.4-1.1,0.4
		c-0.7,0-1.3-0.2-1.8-0.7l0.5-0.6c0.4,0.4,0.9,0.6,1.4,0.6c0.2,0,0.4-0.1,0.6-0.2s0.2-0.2,0.2-0.4s-0.1-0.3-0.2-0.4
		c-0.1-0.1-0.4-0.2-0.7-0.3s-0.6-0.1-0.7-0.2c-0.2-0.1-0.3-0.1-0.4-0.3c-0.3-0.2-0.4-0.5-0.4-0.9s0.1-0.7,0.4-0.9
		c0.3-0.2,0.7-0.3,1.1-0.3c0.3,0,0.6,0,0.8,0.1c0.3,0.1,0.5,0.2,0.7,0.4L223,167c-0.1-0.1-0.3-0.2-0.5-0.3
		C222.3,166.6,222,166.6,221.8,166.6z M226.4,169.7c0.3,0,0.5,0,0.7-0.1c0.2-0.1,0.4-0.2,0.6-0.4l0.5,0.5c-0.5,0.5-1,0.8-1.7,0.8
		c-0.7,0-1.2-0.2-1.6-0.6c-0.4-0.4-0.6-1-0.6-1.6s0.2-1.2,0.7-1.6c0.4-0.4,1-0.6,1.7-0.6c0.7,0,1.2,0.2,1.7,0.7l-0.5,0.5
		c-0.2-0.2-0.4-0.3-0.6-0.4c-0.2-0.1-0.4-0.1-0.7-0.1c-0.4,0-0.8,0.1-1.1,0.4c-0.3,0.3-0.4,0.6-0.4,1.1s0.1,0.8,0.4,1.1
		C225.7,169.6,226,169.7,226.4,169.7z M229,166h0.7v4.3H229V166z M234,166v0.7h-2.3v1.2h2.1v0.7h-2.1v1.2h2.4v0.7h-3.1V166H234z
		 M238.3,166h0.7v4.3h-0.8l-2.5-3.2v3.2H235V166h0.7l2.5,3.2V166z M242.2,169.7c0.3,0,0.5,0,0.7-0.1c0.2-0.1,0.4-0.2,0.6-0.4
		l0.5,0.5c-0.5,0.5-1,0.8-1.7,0.8c-0.7,0-1.2-0.2-1.6-0.6c-0.4-0.4-0.6-1-0.6-1.6s0.2-1.2,0.7-1.6c0.4-0.4,1-0.6,1.7-0.6
		c0.7,0,1.2,0.2,1.7,0.7l-0.5,0.5c-0.2-0.2-0.4-0.3-0.6-0.4c-0.2-0.1-0.4-0.1-0.7-0.1c-0.4,0-0.8,0.1-1.1,0.4
		c-0.3,0.3-0.4,0.6-0.4,1.1s0.1,0.8,0.4,1.1C241.4,169.6,241.8,169.7,242.2,169.7z M247.8,166v0.7h-2.3v1.2h2.1v0.7h-2.1v1.2h2.4
		v0.7h-3.1V166H247.8z M74.6,161.8c1.1,3.6,4.2,4.3,7.5,4.3c5.1,0.1,9.9-1.2,14.2-3.8c3.5-2.1,6-4.9,7.3-8.3
		c3.5-8.8,1-17.5-6.7-23.3c-5.2-3.9-11-5.5-17.4-4.7c-5.9,0.7-11.3,3.2-15.9,7.6c-1.1,1-2,2.2-2.7,3.3c-5.3,8-5.9,16-1.7,23.8
		c2.9,5.2,7.4,9.1,13.4,11.5c2.9,1.2,6,1.7,9.4,1.7c1.4,0,2.8-0.1,4.2-0.3c5.2-0.7,10-2.5,14.3-5.3c0.2-0.1,0.6-0.3,0.7-0.8
		c0-0.2,0-0.6-0.3-0.9l0-0.1c-0.1-0.2-0.4-0.6-0.9-0.6c-0.3-0.1-0.7,0-1,0.3c-0.4,0.3-0.8,0.6-1.3,0.8c-4.4,2.5-9.6,3.9-14.7,4
		c-5.5,0-7.9-0.6-12.1-3c-7.6-4.4-11.8-12.4-10.4-20.9c1.2-7.1,5.4-12.4,12-15.9c4-2.1,8.2-2.8,12.6-2.2c3.6,0.5,7,1.9,10.2,4.3
		c5.6,4.2,7.9,9.4,6.8,16c-1.4,8.8-8.5,12.3-14.3,13.6c0-0.2,0-1.6,0-1.8c0-0.2,0-0.8,0-0.9c0-1.2,0-1.4,0-2c0-1.8,0-1.9,0-2.7
		c0-0.4,0-0.9,0-1.8c0-0.9,0-1.8,0-2.8c0-1.3,0-3.1,0-4.5c0-2.5-0.3-2.5-2.1-2.5l-0.2,0c-0.1,0-0.1,0-0.2,0c-0.9,0-4-0.1-8,0
		c-2.4,0.1-3.1,0.1-3.1,2.1c0,0,0,1.6,0,1.7c0,4.3,0,4.3,0,6.5c0,0.5,0,1.4,0,1.8C74,158.6,73.8,159.1,74.6,161.8z M267.9,170v-2.2
		c0-0.2-0.2-0.3-0.3-0.3h-14c-0.2,0-0.3,0.2-0.3,0.3v2.2c0,0.2,0.2,0.3,0.3,0.3h14C267.8,170.3,267.9,170.2,267.9,170z"/>
</g>
<g id="Guides" class="st3">
	<rect x="44.3" y="27.9" class="st4" width="205.9" height="48.8"/>
	<rect x="44.3" y="125.4" class="st4" width="205.9" height="48.8"/>
	<rect x="44.3" y="76.7" class="st5" width="205.9" height="48.8"/>
	<path id="sze_logo_1_" class="st6" d="M56.8,154.2c0-1,0.1-1.3,1.3-1.4c8.7-0.5,15.8-4.1,21.2-11c3.8-4.8,5.7-10.2,6-16.3
		c0.1-1.3,1.2-1.2,2-1.2c1.2,0,0.9,0.7,0.9,1.4c-0.7,14-10.4,25.8-24,29.1c-1.9,0.5-3.9,0.7-5.9,0.8
		C56.8,155.8,56.8,155.7,56.8,154.2z M82.4,125.7c0.1-0.7,0.1-1.3-1-1.3c-0.8,0-1.8-0.2-1.9,1.2c0,2.4-0.5,4.7-1.5,6.9
		c-3.8,9-10.5,14-20.2,14.6c-1.4,0.1-1.1,1.2-1,1.9c0.1,1,0.5,1,1.2,0.9c1.2-0.1,2.3-0.2,3.5-0.4c11.2-2,20-11.7,20.8-23.1
		C82.4,126.2,82.4,126,82.4,125.7z M130.3,128.9c1.4,0,2.8,0.5,4.1,1.5l1.7-2.5c-0.8-0.6-1.6-1.1-2.7-1.5c-1-0.3-2-0.5-3.1-0.5
		c-1.6,0-2.9,0.4-3.9,1.2c-1,0.8-1.6,1.9-1.6,3.3c0,1.4,0.4,2.5,1.2,3.2c0.8,0.7,2.1,1.2,3.9,1.6c1.1,0.3,1.9,0.5,2.2,0.8
		c0.4,0.3,0.6,0.6,0.6,1.1c0,0.5-0.2,0.8-0.5,1.1c-0.4,0.3-0.8,0.4-1.5,0.4c-1.4,0-2.9-0.7-4.6-2.2l-2,2.5c1.9,1.8,4.1,2.7,6.5,2.7
		c1.7,0,3-0.4,4-1.3c1-0.9,1.5-2,1.5-3.3c0-1.4-0.4-2.4-1.2-3.1c-0.8-0.7-1.9-1.2-3.4-1.6c-1.4-0.4-2.4-0.7-2.8-0.9
		c-0.4-0.3-0.6-0.6-0.6-1.1c0-0.4,0.2-0.8,0.5-1.1C129.3,129,129.7,128.9,130.3,128.9z M151.2,141.5v-3h-8.1l8-9.9v-2.4h-12.4v2.9
		h7.7l-8,10v2.3H151.2z M154.1,126.2v15.2h11.2v-3h-7.8v-3.2h6.8v-2.9h-6.8v-3.1h7.6v-3H154.1z M163.9,122.2l-3.4-1.4l-2.8,3.9h3.1
		L163.9,122.2z M172.3,137.2c-0.9-0.9-1.3-2-1.3-3.4c0-1.4,0.5-2.5,1.4-3.4c0.9-0.8,2-1.3,3.3-1.3c1.6,0,2.9,0.7,4,2l2.1-2.4
		c-1.7-1.9-3.8-2.9-6.3-2.9c-2.2,0-4.1,0.8-5.7,2.3c-1.5,1.5-2.3,3.4-2.3,5.7c0,2.3,0.8,4.1,2.3,5.6c1.5,1.5,3.5,2.2,5.8,2.2
		s4.4-1,6.1-2.9l-2.2-2.2c-1.1,1.3-2.4,2-4.1,2C174.2,138.5,173.1,138,172.3,137.2z M193.8,132.6h-6.1v-6.4h-3.4v15.2h3.4v-6h6.1v6
		h3.4v-15.2h-3.4V132.6z M201,126.2v15.2h11.2v-3h-7.8v-3.2h6.8v-2.9h-6.8v-3.1h7.6v-3H201z M225.9,136.1l-7.5-9.8h-3.2v15.2h3.4
		v-9.5l7.3,9.5h3.4v-15.2h-3.4V136.1z M239.6,135.5l5.3-9.2h-3.7l-3.3,5.7l-3.3-5.7h-3.7l5.3,9.2v6h3.4V135.5z M246.5,141.5h3.4
		v-15.2h-3.4V141.5z M125.4,144.9v15.2h11.2v-3h-7.8V154h6.8v-2.9h-6.8v-3.1h7.6v-3H125.4z M149.8,156.6c-0.8,0.5-1.8,0.7-2.9,0.7
		c-1.2,0-2.2-0.4-3-1.3c-0.9-0.9-1.3-2-1.3-3.5s0.4-2.6,1.3-3.5c0.9-0.9,2-1.3,3.3-1.3c0.7,0,1.3,0.1,1.9,0.3
		c0.6,0.2,1.2,0.6,1.9,1.2l1.8-2.5c-1.6-1.4-3.5-2.2-5.7-2.2c-2.2,0-4.1,0.8-5.6,2.3c-1.5,1.5-2.3,3.4-2.3,5.7
		c0,2.3,0.8,4.1,2.3,5.6c1.5,1.5,3.4,2.2,5.6,2.2c2.7,0,4.8-0.8,6.3-2.5v-5.4h-3.4V156.6z M162.8,154.1l5.3-9.2h-3.7l-3.3,5.7
		l-3.3-5.7h-3.7l5.3,9.2v6h3.4V154.1z M169.9,144.9v15.2h11.2v-3h-7.8V154h6.8v-2.9h-6.8v-3.1h7.6v-3H169.9z M195.2,147.9v-2.9h-12
		v2.9h4.3v12.3h3.4v-12.3H195.2z M197.9,144.9v15.2h11.2v-3h-7.8V154h6.8v-2.9h-6.8v-3.1h7.6v-3H197.9z M226,160.1h3.4v-15.2h-4.6
		l-3.9,8.4l-3.9-8.4h-4.6v15.2h3.4v-9.6l4.1,8.3h2l4.1-8.3V160.1z M125,169.8v-3.7h-1.1v3.7c0,1,0.3,1.7,0.8,2.2
		c0.5,0.5,1.2,0.8,2,0.8c0.8,0,1.5-0.3,2-0.8c0.5-0.5,0.8-1.2,0.8-2.2v-3.7h-1.1v3.7c0,0.6-0.2,1.1-0.5,1.4
		c-0.3,0.4-0.7,0.5-1.2,0.5c-0.5,0-0.9-0.2-1.2-0.5C125.2,170.9,125,170.4,125,169.8z M136.2,171.1l-3.8-4.9h-1.1v6.6h1.1V168
		l3.7,4.8h1.2v-6.6h-1.1V171.1z M139.2,172.8h1.1v-6.6h-1.1V172.8z M147.8,166.2h-1.2l-2,4.9l-2-4.9h-1.2l2.7,6.6h1.2L147.8,166.2z
		 M148.8,166.2v6.6h4.8v-1.1h-3.6V170h3.2v-1h-3.2v-1.8h3.5v-1.1H148.8z M159.6,166.7c-0.4-0.3-1.2-0.5-2.2-0.5h-2.5v6.6h1.1v-2.2
		h1.5l1.6,2.2h1.4l-1.7-2.4c1-0.3,1.4-1,1.4-2.1C160.2,167.6,160,167,159.6,166.7z M157.5,169.6h-1.4v-2.4h1.4c0.6,0,1,0.1,1.2,0.2
		c0.2,0.2,0.4,0.5,0.4,0.9c0,0.4-0.1,0.7-0.3,0.9C158.5,169.5,158.1,169.6,157.5,169.6z M164.8,167.2c0.3,0.1,0.6,0.3,0.8,0.4
		l0.6-0.8c-0.3-0.3-0.7-0.4-1.1-0.6c-0.4-0.1-0.8-0.2-1.3-0.2c-0.7,0-1.2,0.2-1.7,0.5c-0.4,0.3-0.7,0.8-0.7,1.4
		c0,0.6,0.2,1.1,0.6,1.4c0.2,0.2,0.4,0.3,0.7,0.4c0.3,0.1,0.6,0.2,1.1,0.3c0.5,0.1,0.8,0.2,1,0.4c0.2,0.1,0.3,0.3,0.3,0.6
		c0,0.3-0.1,0.5-0.3,0.6c-0.2,0.2-0.5,0.2-0.9,0.2c-0.7,0-1.4-0.3-2.1-0.9l-0.7,0.8c0.8,0.7,1.7,1.1,2.8,1.1c0.7,0,1.3-0.2,1.7-0.5
		c0.4-0.4,0.7-0.8,0.7-1.4c0-0.6-0.2-1-0.5-1.3c-0.3-0.3-0.9-0.5-1.5-0.7c-0.7-0.2-1.1-0.3-1.3-0.5c-0.2-0.1-0.3-0.3-0.3-0.6
		s0.1-0.5,0.3-0.6c0.2-0.1,0.5-0.2,0.8-0.2C164.2,167,164.5,167.1,164.8,167.2z M167.8,172.8h1.1v-6.6h-1.1V172.8z M175.3,167.2v-1
		h-5.1v1h2v5.6h1.1v-5.6H175.3z M179.1,170.2l2.5-4h-1.2l-1.8,3l-1.8-3h-1.2l2.5,4v2.6h1.1V170.2z M191.5,169.4c0-1-0.3-1.8-1-2.4
		c-0.7-0.7-1.5-1-2.5-1c-1,0-1.8,0.3-2.5,1c-0.7,0.7-1,1.5-1,2.4s0.3,1.8,1,2.4c0.7,0.7,1.5,1,2.5,1c1,0,1.8-0.3,2.5-1
		C191.2,171.2,191.5,170.4,191.5,169.4z M190.4,169.4c0,0.7-0.2,1.2-0.7,1.7c-0.5,0.5-1,0.7-1.7,0.7c-0.7,0-1.2-0.2-1.7-0.7
		c-0.5-0.5-0.7-1-0.7-1.7c0-0.7,0.2-1.2,0.7-1.7c0.5-0.5,1-0.7,1.7-0.7c0.7,0,1.2,0.2,1.7,0.7C190.1,168.2,190.4,168.8,190.4,169.4z
		 M197.3,167.2l0-1h-4.4v6.6h1.1v-2.7h2.9v-1H194v-1.8H197.3z M205.8,171.4c-0.4,0.3-0.9,0.4-1.6,0.4c-0.6,0-1.2-0.2-1.6-0.6
		c-0.4-0.4-0.7-1-0.7-1.7c0-0.7,0.2-1.3,0.7-1.7c0.5-0.4,1-0.6,1.7-0.6c0.3,0,0.7,0,0.9,0.1c0.3,0.1,0.5,0.2,0.8,0.5l0.6-0.9
		c-0.6-0.6-1.4-0.8-2.4-0.8c-1,0-1.8,0.3-2.4,1c-0.7,0.7-1,1.5-1,2.5s0.3,1.8,1,2.4c0.7,0.6,1.5,1,2.5,1c1.2,0,2.1-0.3,2.7-1v-2.3
		h-1.1V171.4z M210.9,170.2l2.5-4h-1.2l-1.8,3l-1.8-3h-1.2l2.5,4v2.6h1.1V170.2z M220.7,169.4c0-1-0.3-1.8-1-2.4
		c-0.7-0.7-1.5-1-2.5-1c-1,0-1.8,0.3-2.5,1c-0.7,0.7-1,1.5-1,2.4s0.3,1.8,1,2.4c0.7,0.7,1.5,1,2.5,1c1,0,1.8-0.3,2.5-1
		C220.4,171.2,220.7,170.4,220.7,169.4z M219.6,169.4c0,0.7-0.2,1.2-0.7,1.7c-0.5,0.5-1,0.7-1.7,0.7c-0.7,0-1.2-0.2-1.7-0.7
		c-0.5-0.5-0.7-1-0.7-1.7c0-0.7,0.2-1.2,0.7-1.7c0.5-0.5,1-0.7,1.7-0.7c0.7,0,1.2,0.2,1.7,0.7C219.4,168.2,219.6,168.8,219.6,169.4z
		 M226.8,166.7c-0.4-0.3-1.2-0.5-2.2-0.5h-2.5v6.6h1.1v-2.2h1.5l1.6,2.2h1.4l-1.7-2.4c1-0.3,1.4-1,1.4-2.1
		C227.4,167.6,227.2,167,226.8,166.7z M224.7,169.6h-1.4v-2.4h1.4c0.6,0,1,0.1,1.2,0.2c0.2,0.2,0.4,0.5,0.4,0.9
		c0,0.4-0.1,0.7-0.3,0.9C225.7,169.5,225.3,169.6,224.7,169.6z M105.2,126.8v-2.5c0-0.2-0.2-0.3-0.3-0.3H93.7
		c-0.2,0-0.3,0.2-0.3,0.3v2.5c0,0.2,0.2,0.3,0.3,0.3h11.2C105.1,127.1,105.2,127,105.2,126.8z M105.2,132.5V130
		c0-0.2-0.2-0.3-0.3-0.3H93.7c-0.2,0-0.3,0.2-0.3,0.3v2.5c0,0.2,0.2,0.3,0.3,0.3h11.2C105.1,132.8,105.2,132.7,105.2,132.5z
		 M105.2,138.2v-2.5c0-0.2-0.2-0.3-0.3-0.3H93.7c-0.2,0-0.3,0.2-0.3,0.3v2.5c0,0.2,0.2,0.3,0.3,0.3h11.2
		C105.1,138.6,105.2,138.4,105.2,138.2z M105.2,143.9v-2.5c0-0.2-0.2-0.3-0.3-0.3H93.7c-0.2,0-0.3,0.2-0.3,0.3v2.5
		c0,0.2,0.2,0.3,0.3,0.3h11.2C105.1,144.3,105.2,144.1,105.2,143.9z M105.2,149.6v-2.5c0-0.2-0.2-0.3-0.3-0.3H93.7
		c-0.2,0-0.3,0.2-0.3,0.3v2.5c0,0.2,0.2,0.3,0.3,0.3h11.2C105.1,150,105.2,149.8,105.2,149.6z M105.2,155.3v-2.5
		c0-0.2-0.2-0.3-0.3-0.3H93.7c-0.2,0-0.3,0.2-0.3,0.3v2.5c0,0.2,0.2,0.3,0.3,0.3h11.2C105.1,155.7,105.2,155.5,105.2,155.3z
		 M105.2,161v-2.5c0-0.2-0.2-0.3-0.3-0.3H93.7c-0.2,0-0.3,0.2-0.3,0.3v2.5c0,0.2,0.2,0.3,0.3,0.3h11.2
		C105.1,161.4,105.2,161.2,105.2,161z M105.2,166.7v-2.5c0-0.2-0.2-0.3-0.3-0.3H93.7c-0.2,0-0.3,0.2-0.3,0.3v2.5
		c0,0.2,0.2,0.3,0.3,0.3h11.2C105.1,167.1,105.2,166.9,105.2,166.7z M105.2,172.4V170c0-0.2-0.2-0.3-0.3-0.3H93.7
		c-0.2,0-0.3,0.2-0.3,0.3v2.5c0,0.2,0.2,0.3,0.3,0.3h11.2C105.1,172.8,105.2,172.6,105.2,172.4z M87.7,161v-2.5
		c0-0.2-0.2-0.3-0.3-0.3H44.9c-0.2,0-0.3,0.2-0.3,0.3v2.5c0,0.2,0.2,0.3,0.3,0.3h42.5C87.6,161.4,87.7,161.2,87.7,161z M87.7,172.4
		V170c0-0.2-0.2-0.3-0.3-0.3H44.9c-0.2,0-0.3,0.2-0.3,0.3v2.5c0,0.2,0.2,0.3,0.3,0.3h42.5C87.6,172.8,87.7,172.6,87.7,172.4z
		 M218.9,164.2l-0.8-0.4l-0.8,1.6h0.8L218.9,164.2z M217.4,164.2l-0.8-0.3l-0.8,1.6h0.8L217.4,164.2z"/>
</g>
</svg>
