<?xml version="1.0" encoding="utf-8"?>
<!-- Generator: Adobe Illustrator 22.0.1, SVG Export Plug-In . SVG Version: 6.00 Build 0)  -->
<svg version="1.1" xmlns="http://www.w3.org/2000/svg" xmlns:xlink="http://www.w3.org/1999/xlink" x="0px" y="0px"
	 viewBox="0 0 312 202.5" style="enable-background:new 0 0 312 202.5;" xml:space="preserve">
<style type="text/css">
	.st0{display:none;}
	.st1{display:inline;fill:#45ACC5;}
	.st2{fill:#1B2743;}
	.st3{fill:#4BADC6;}
	.st4{display:none;fill:#1B2743;}
</style>
<g id="bg" class="st0">
	<rect x="23" y="1.4" class="st1" width="262.3" height="164.7"/>
</g>
<g id="sze">
	<path id="sze_logo__x23_242943" class="st2" d="M50.3,82.3c0-1.5,0.2-1.9,1.8-2c12.4-0.8,22.5-5.9,30.2-15.6
		c5.4-6.8,8.1-14.6,8.5-23.2c0.1-1.9,1.7-1.7,2.8-1.7c1.7,0,1.3,1,1.3,2c-1,19.9-14.8,36.8-34.3,41.5c-2.8,0.7-5.6,1-8.4,1.2
		C50.3,84.6,50.3,84.6,50.3,82.3z M86.8,41.7c0.1-1,0.2-1.9-1.4-1.9c-1.2,0-2.6-0.4-2.7,1.7c0,3.4-0.8,6.7-2.1,9.9
		c-5.4,12.8-15,20-28.8,20.9c-2,0.1-1.5,1.7-1.5,2.8c0.1,1.4,0.8,1.4,1.8,1.3c1.7-0.1,3.3-0.3,4.9-0.6C73,72.9,85.6,59,86.7,42.8
		C86.8,42.5,86.8,42.1,86.8,41.7z M36.4,121c1,0,1.9,0.3,2.8,1l1.2-1.7c-0.5-0.4-1.1-0.8-1.8-1c-0.7-0.2-1.4-0.4-2.1-0.4
		c-1.1,0-2,0.3-2.7,0.8c-0.7,0.5-1.1,1.3-1.1,2.3c0,1,0.3,1.7,0.9,2.2c0.6,0.5,1.5,0.8,2.7,1.1c0.8,0.2,1.3,0.4,1.6,0.6
		c0.3,0.2,0.4,0.4,0.4,0.8c0,0.3-0.1,0.6-0.4,0.8c-0.2,0.2-0.6,0.3-1,0.3c-1,0-2-0.5-3.2-1.5l-1.4,1.7c1.3,1.2,2.8,1.9,4.5,1.9
		c1.2,0,2.1-0.3,2.8-0.9c0.7-0.6,1.1-1.4,1.1-2.3c0-0.9-0.3-1.7-0.8-2.2c-0.6-0.5-1.3-0.9-2.3-1.1c-1-0.2-1.6-0.5-1.9-0.6
		c-0.3-0.2-0.4-0.4-0.4-0.7c0-0.3,0.1-0.6,0.3-0.7C35.7,121.1,36,121,36.4,121z M50.8,129.7v-2.1h-5.6l5.5-6.9v-1.6h-8.5v2h5.3
		l-5.5,6.9v1.6H50.8z M52.9,119.2v10.5h7.8v-2.1h-5.4v-2.2h4.7v-2h-4.7v-2.2h5.2v-2.1H52.9z M59.6,116.4l-2.3-1l-1.9,2.7h2.2
		L59.6,116.4z M65.4,126.8c-0.6-0.6-0.9-1.4-0.9-2.4c0-1,0.3-1.8,0.9-2.3c0.6-0.6,1.4-0.9,2.3-0.9c1.1,0,2,0.5,2.8,1.4l1.5-1.7
		c-1.2-1.3-2.6-2-4.3-2c-1.5,0-2.9,0.5-3.9,1.6c-1.1,1-1.6,2.3-1.6,3.9c0,1.6,0.5,2.9,1.6,3.9c1.1,1,2.4,1.5,4,1.5
		c1.6,0,3-0.7,4.2-2l-1.5-1.6c-0.7,0.9-1.7,1.4-2.8,1.4C66.7,127.6,66,127.3,65.4,126.8z M80.3,123.6h-4.2v-4.4h-2.4v10.5h2.4v-4.1
		h4.2v4.1h2.4v-10.5h-2.4V123.6z M85.2,119.2v10.5H93v-2.1h-5.4v-2.2h4.7v-2h-4.7v-2.2h5.2v-2.1H85.2z M102.5,126l-5.2-6.8h-2.2
		v10.5h2.4v-6.6l5,6.6h2.4v-10.5h-2.4V126z M112,125.6l3.6-6.4h-2.5l-2.3,3.9l-2.3-3.9H106l3.6,6.4v4.2h2.4V125.6z M116.7,129.7h2.4
		v-10.5h-2.4V129.7z M33,132.1v10.5h7.8v-2.1h-5.4v-2.2H40v-2h-4.7v-2.2h5.2v-2.1H33z M49.8,140.2c-0.5,0.3-1.2,0.5-2,0.5
		c-0.8,0-1.5-0.3-2.1-0.9c-0.6-0.6-0.9-1.4-0.9-2.4s0.3-1.8,0.9-2.4c0.6-0.6,1.4-0.9,2.3-0.9c0.5,0,0.9,0.1,1.3,0.2
		c0.4,0.2,0.8,0.4,1.3,0.9l1.2-1.8c-1.1-1-2.4-1.5-3.9-1.5c-1.5,0-2.8,0.5-3.9,1.6c-1.1,1-1.6,2.3-1.6,3.9c0,1.6,0.5,2.9,1.6,3.9
		c1.1,1,2.3,1.5,3.9,1.5c1.8,0,3.3-0.6,4.3-1.7v-3.7h-2.4V140.2z M58.8,138.5l3.6-6.4h-2.5l-2.3,3.9l-2.3-3.9h-2.5l3.6,6.4v4.2h2.4
		V138.5z M63.8,132.1v10.5h7.8v-2.1h-5.4v-2.2h4.7v-2h-4.7v-2.2h5.2v-2.1H63.8z M81.2,134.1v-2h-8.3v2h3v8.5h2.4v-8.5H81.2z
		 M83.1,132.1v10.5h7.8v-2.1h-5.4v-2.2h4.7v-2h-4.7v-2.2h5.2v-2.1H83.1z M102.6,142.6h2.4v-10.5h-3.2l-2.7,5.8l-2.7-5.8h-3.2v10.5
		h2.4V136l2.8,5.8h1.4l2.8-5.8V142.6z M32.7,149.3v-2.5h-0.8v2.6c0,0.7,0.2,1.2,0.5,1.5c0.4,0.4,0.8,0.5,1.4,0.5
		c0.6,0,1-0.2,1.4-0.5c0.4-0.4,0.5-0.9,0.5-1.5v-2.6H35v2.5c0,0.4-0.1,0.8-0.3,1c-0.2,0.2-0.5,0.4-0.9,0.4c-0.4,0-0.6-0.1-0.9-0.4
		C32.8,150.1,32.7,149.8,32.7,149.3z M40.5,150.2l-2.7-3.4H37v4.6h0.8V148l2.6,3.3h0.8v-4.6h-0.8V150.2z M42.5,151.4h0.8v-4.6h-0.8
		V151.4z M48.5,146.8h-0.9l-1.4,3.4l-1.4-3.4h-0.9l1.8,4.6h0.9L48.5,146.8z M49.1,146.8v4.6h3.3v-0.7h-2.5v-1.2h2.2v-0.7h-2.2v-1.2
		h2.4v-0.7H49.1z M56.6,147.2c-0.3-0.2-0.8-0.4-1.5-0.4h-1.7v4.6h0.8v-1.5h1l1.1,1.5h1l-1.2-1.7c0.7-0.2,1-0.7,1-1.4
		C57.1,147.8,56.9,147.4,56.6,147.2z M55.1,149.1h-1v-1.6h1c0.4,0,0.7,0.1,0.9,0.2c0.2,0.1,0.2,0.3,0.2,0.6c0,0.3-0.1,0.5-0.2,0.7
		C55.9,149.1,55.6,149.1,55.1,149.1z M60.2,147.5c0.2,0.1,0.4,0.2,0.6,0.3l0.4-0.6c-0.2-0.2-0.5-0.3-0.7-0.4
		c-0.3-0.1-0.6-0.1-0.9-0.1c-0.5,0-0.8,0.1-1.1,0.3c-0.3,0.2-0.5,0.6-0.5,1c0,0.4,0.1,0.7,0.4,0.9c0.1,0.1,0.3,0.2,0.5,0.3
		c0.2,0.1,0.4,0.1,0.8,0.2c0.3,0.1,0.6,0.2,0.7,0.3c0.1,0.1,0.2,0.2,0.2,0.4c0,0.2-0.1,0.3-0.2,0.4c-0.1,0.1-0.3,0.2-0.6,0.2
		c-0.5,0-1-0.2-1.4-0.6l-0.5,0.6c0.6,0.5,1.2,0.7,1.9,0.7c0.5,0,0.9-0.1,1.2-0.4c0.3-0.2,0.5-0.6,0.5-1c0-0.4-0.1-0.7-0.4-0.9
		c-0.2-0.2-0.6-0.4-1.1-0.5c-0.5-0.1-0.8-0.2-0.9-0.3s-0.2-0.2-0.2-0.4s0.1-0.3,0.2-0.4c0.1-0.1,0.3-0.1,0.6-0.1
		C59.8,147.4,60,147.4,60.2,147.5z M62.3,151.4h0.8v-4.6h-0.8V151.4z M67.5,147.5v-0.7h-3.5v0.7h1.4v3.9h0.8v-3.9H67.5z M70.1,149.6
		l1.7-2.8H71l-1.3,2.1l-1.3-2.1h-0.8l1.7,2.8v1.8h0.8V149.6z M78.7,149.1c0-0.7-0.2-1.2-0.7-1.7c-0.5-0.5-1-0.7-1.7-0.7
		c-0.7,0-1.3,0.2-1.7,0.7c-0.5,0.5-0.7,1-0.7,1.7c0,0.7,0.2,1.2,0.7,1.7c0.5,0.5,1,0.7,1.7,0.7c0.7,0,1.3-0.2,1.7-0.7
		C78.5,150.3,78.7,149.7,78.7,149.1z M77.9,149.1c0,0.5-0.2,0.9-0.5,1.2c-0.3,0.3-0.7,0.5-1.1,0.5s-0.8-0.2-1.1-0.5
		c-0.3-0.3-0.5-0.7-0.5-1.2c0-0.5,0.2-0.9,0.5-1.2c0.3-0.3,0.7-0.5,1.1-0.5s0.8,0.2,1.1,0.5C77.8,148.2,77.9,148.6,77.9,149.1z
		 M82.7,147.5l0-0.7h-3.1v4.6h0.8v-1.9h2v-0.7h-2v-1.3H82.7z M88.6,150.4c-0.3,0.2-0.7,0.3-1.1,0.3c-0.4,0-0.8-0.1-1.1-0.4
		c-0.3-0.3-0.5-0.7-0.5-1.2c0-0.5,0.2-0.9,0.5-1.2c0.3-0.3,0.7-0.4,1.2-0.4c0.2,0,0.5,0,0.6,0.1c0.2,0.1,0.4,0.2,0.5,0.3l0.4-0.6
		c-0.4-0.4-1-0.6-1.6-0.6s-1.2,0.2-1.7,0.7c-0.5,0.5-0.7,1-0.7,1.7s0.2,1.2,0.7,1.7c0.5,0.4,1,0.7,1.7,0.7c0.8,0,1.4-0.2,1.9-0.7
		v-1.6h-0.8V150.4z M92.1,149.6l1.7-2.8H93l-1.3,2.1l-1.3-2.1h-0.8l1.7,2.8v1.8h0.8V149.6z M98.9,149.1c0-0.7-0.2-1.2-0.7-1.7
		c-0.5-0.5-1-0.7-1.7-0.7c-0.7,0-1.3,0.2-1.7,0.7c-0.5,0.5-0.7,1-0.7,1.7c0,0.7,0.2,1.2,0.7,1.7c0.5,0.5,1,0.7,1.7,0.7
		c0.7,0,1.3-0.2,1.7-0.7C98.7,150.3,98.9,149.7,98.9,149.1z M98.1,149.1c0,0.5-0.2,0.9-0.5,1.2c-0.3,0.3-0.7,0.5-1.1,0.5
		s-0.8-0.2-1.1-0.5c-0.3-0.3-0.5-0.7-0.5-1.2c0-0.5,0.2-0.9,0.5-1.2c0.3-0.3,0.7-0.5,1.1-0.5s0.8,0.2,1.1,0.5
		C98,148.2,98.1,148.6,98.1,149.1z M103.1,147.2c-0.3-0.2-0.8-0.4-1.5-0.4h-1.7v4.6h0.8v-1.5h1l1.1,1.5h1l-1.2-1.7
		c0.7-0.2,1-0.7,1-1.4C103.6,147.8,103.4,147.4,103.1,147.2z M101.6,149.1h-1v-1.6h1c0.4,0,0.7,0.1,0.9,0.2c0.2,0.1,0.2,0.3,0.2,0.6
		c0,0.3-0.1,0.5-0.2,0.7C102.4,149.1,102.1,149.1,101.6,149.1z M119.4,43.4v-3.8c0-0.2-0.2-0.3-0.3-0.3h-16.3
		c-0.2,0-0.3,0.2-0.3,0.3v3.8c0,0.2,0.2,0.3,0.3,0.3H119C119.2,43.8,119.4,43.6,119.4,43.4z M119.4,51.6v-3.8c0-0.2-0.2-0.3-0.3-0.3
		h-16.3c-0.2,0-0.3,0.2-0.3,0.3v3.8c0,0.2,0.2,0.3,0.3,0.3H119C119.2,51.9,119.4,51.8,119.4,51.6z M119.4,59.7v-3.8
		c0-0.2-0.2-0.3-0.3-0.3h-16.3c-0.2,0-0.3,0.2-0.3,0.3v3.8c0,0.2,0.2,0.3,0.3,0.3H119C119.2,60.1,119.4,59.9,119.4,59.7z
		 M119.4,67.9v-3.8c0-0.2-0.2-0.3-0.3-0.3h-16.3c-0.2,0-0.3,0.2-0.3,0.3v3.8c0,0.2,0.2,0.3,0.3,0.3H119
		C119.2,68.2,119.4,68.1,119.4,67.9z M119.4,76v-3.8c0-0.2-0.2-0.3-0.3-0.3h-16.3c-0.2,0-0.3,0.2-0.3,0.3V76c0,0.2,0.2,0.3,0.3,0.3
		H119C119.2,76.3,119.4,76.2,119.4,76z M119.4,84.1v-3.8c0-0.2-0.2-0.3-0.3-0.3h-16.3c-0.2,0-0.3,0.2-0.3,0.3v3.8
		c0,0.2,0.2,0.3,0.3,0.3H119C119.2,84.5,119.4,84.3,119.4,84.1z M119.4,92.3v-3.8c0-0.2-0.2-0.3-0.3-0.3h-16.3
		c-0.2,0-0.3,0.2-0.3,0.3v3.8c0,0.2,0.2,0.3,0.3,0.3H119C119.2,92.6,119.4,92.5,119.4,92.3z M119.4,100.4v-3.8
		c0-0.2-0.2-0.3-0.3-0.3h-16.3c-0.2,0-0.3,0.2-0.3,0.3v3.8c0,0.2,0.2,0.3,0.3,0.3H119C119.2,100.8,119.4,100.6,119.4,100.4z
		 M119.4,108.6v-3.8c0-0.2-0.2-0.3-0.3-0.3h-16.3c-0.2,0-0.3,0.2-0.3,0.3v3.8c0,0.2,0.2,0.3,0.3,0.3H119
		C119.2,108.9,119.4,108.8,119.4,108.6z M94.4,92.3v-3.8c0-0.2-0.2-0.3-0.3-0.3H33.1c-0.2,0-0.3,0.2-0.3,0.3v3.8
		c0,0.2,0.2,0.3,0.3,0.3H94C94.2,92.6,94.4,92.5,94.4,92.3z M94.4,108.6v-3.8c0-0.2-0.2-0.3-0.3-0.3H33.1c-0.2,0-0.3,0.2-0.3,0.3
		v3.8c0,0.2,0.2,0.3,0.3,0.3H94C94.2,108.9,94.4,108.8,94.4,108.6z M97.6,145.5l-0.5-0.3l-0.6,1.1h0.6L97.6,145.5z M96.6,145.4
		l-0.5-0.2l-0.6,1.1h0.6L96.6,145.4z M119.4,151v-1.5c0-0.2-0.2-0.3-0.3-0.3h-10.3c-0.2,0-0.3,0.2-0.3,0.3v1.5
		c0,0.2,0.2,0.3,0.3,0.3H119C119.2,151.4,119.4,151.2,119.4,151z"/>
	<path id="sze_vilagos__x23_50ADC9" class="st3" d="M94.4,100.4v-3.8c0-0.2-0.2-0.3-0.3-0.3H51.7c-0.2,0-0.3,0.2-0.3,0.3v3.8
		c0,0.2,0.2,0.3,0.3,0.3H94C94.2,100.8,94.4,100.6,94.4,100.4z"/>
</g>
<g id="tanszek">
	<circle id="tsz_vilagos_1_" class="st3" cx="223.5" cy="55.6" r="7.2"/>
	<path class="st2" d="M175.7,119.4h2.3v10.2h-2.3V119.4z M187.3,119.4h2.3v10.2h-2.3l-4.9-6.4v6.4h-2.3v-10.2h2.1l5,6.6V119.4z
		 M198.8,119.4v2H194v2.2h4.5v2H194v4h-2.3v-10.2H198.8z M209,128.2c-1,1-2.3,1.5-3.8,1.5c-1.5,0-2.8-0.5-3.8-1.5
		c-1-1-1.6-2.3-1.6-3.8c0-1.5,0.5-2.8,1.6-3.8c1-1,2.3-1.5,3.8-1.5c1.5,0,2.8,0.5,3.8,1.5s1.6,2.3,1.6,3.8
		C210.5,125.9,210,127.2,209,128.2z M208.2,124.4c0-0.9-0.3-1.7-0.9-2.3c-0.6-0.6-1.3-1-2.2-1c-0.9,0-1.6,0.3-2.2,1
		c-0.6,0.6-0.9,1.4-0.9,2.3s0.3,1.7,0.9,2.3c0.6,0.6,1.3,1,2.2,1c0.9,0,1.6-0.3,2.2-1C207.9,126.1,208.2,125.3,208.2,124.4z
		 M220.4,122.8c0,1.6-0.6,2.7-1.9,3.2l2.6,3.7h-2.8l-2.3-3.3h-1.6v3.3h-2.3v-10.2h3.9c1.6,0,2.7,0.3,3.4,0.8
		C220.1,120.7,220.4,121.6,220.4,122.8z M217.7,124c0.3-0.3,0.4-0.7,0.4-1.2c0-0.6-0.1-0.9-0.4-1.1c-0.3-0.2-0.8-0.3-1.5-0.3h-1.7v3
		h1.7C216.8,124.4,217.4,124.2,217.7,124z M231.6,123.2l-2.8,5.6h-1.4l-2.8-5.6v6.4h-2.3v-10.2h3.1l2.6,5.6l2.6-5.6h3.1v10.2h-2.3
		V123.2z M243.3,129.6l-1-2.2h-4.3l-1,2.2h-2.4l4.4-10.2h2.2l4.4,10.2H243.3z M240.2,122.4l-1.3,3h2.6L240.2,122.4z M250.9,121.3
		v8.3h-2.3v-8.3h-2.9v-2h8.1v2H250.9z M255.1,119.4h2.3v10.2h-2.3V119.4z M259.6,119.4h2.3v4.2l3.9-4.2h2.8l-4.1,4.5
		c0.4,0.5,1,1.4,1.9,2.7c0.9,1.3,1.7,2.3,2.1,3h-2.7l-3-4l-1,1.1v2.9h-2.3V119.4z M276.9,129.6l-1-2.2h-4.3l-1,2.2h-2.4l4.4-10.2
		h2.2l4.4,10.2H276.9z M273.8,122.4l-1.3,3h2.6L273.8,122.4z M180,135.6v8.3h-2.3v-8.3h-2.9v-2h8.1v2H180z M191.5,143.8l-1-2.2h-4.3
		l-1,2.2h-2.4l4.4-10.2h2.2l4.4,10.2H191.5z M188.5,136.6l-1.3,3h2.6L188.5,136.6z M202,133.6h2.3v10.2H202l-4.9-6.4v6.4h-2.3v-10.2
		h2.1l5,6.6V133.6z M208.8,135.6c-0.2,0.2-0.3,0.4-0.3,0.7c0,0.3,0.1,0.5,0.4,0.7c0.3,0.2,0.9,0.4,1.9,0.6s1.7,0.6,2.3,1.1
		c0.5,0.5,0.8,1.2,0.8,2.1c0,0.9-0.3,1.7-1,2.2c-0.7,0.6-1.6,0.9-2.7,0.9c-1.6,0-3.1-0.6-4.4-1.8l1.4-1.7c1.1,1,2.1,1.4,3.1,1.4
		c0.4,0,0.7-0.1,1-0.3c0.2-0.2,0.4-0.4,0.4-0.7c0-0.3-0.1-0.6-0.4-0.7c-0.3-0.2-0.8-0.4-1.5-0.5c-1.2-0.3-2.1-0.7-2.6-1.1
		c-0.6-0.5-0.8-1.2-0.8-2.1c0-1,0.3-1.7,1-2.2c0.7-0.5,1.6-0.8,2.6-0.8c0.7,0,1.4,0.1,2,0.4c0.7,0.2,1.3,0.6,1.8,1l-1.2,1.7
		c-0.9-0.7-1.8-1-2.8-1C209.3,135.4,209,135.5,208.8,135.6z M214.8,143.8v-1.6l5.4-6.7H215v-2h8.3v1.6l-5.3,6.7h5.4v2H214.8z
		 M232.4,133.6v2h-5.1v2.1h4.6v1.9h-4.6v2.1h5.3v2H225v-10.2H232.4z M229.5,132.5h-2.1l1.9-2.6l2.3,1L229.5,132.5z M234.2,133.6h2.3
		v4.2l3.9-4.2h2.8l-4.1,4.5c0.4,0.5,1,1.4,1.9,2.7c0.9,1.3,1.7,2.3,2.1,3h-2.7l-3-4l-1,1.1v2.9h-2.3V133.6z M177.3,149.1
		c0.3,0.3,0.5,0.7,0.5,1.1s-0.1,0.9-0.4,1.2s-0.7,0.4-1.4,0.4h-1v-3.2h1.1C176.5,148.7,177,148.8,177.3,149.1z M177.2,150.2
		c0-0.7-0.4-1.1-1.2-1.1h-0.5v2.2h0.6c0.4,0,0.7-0.1,0.9-0.3C177.1,150.9,177.2,150.6,177.2,150.2z M180.6,148.7v0.5H179v0.8h1.5
		v0.5H179v0.8h1.7v0.5h-2.3v-3.2H180.6z M183.5,148.9c0.2,0.2,0.3,0.5,0.3,0.8c0,0.4-0.1,0.7-0.3,0.8c-0.2,0.2-0.6,0.3-1,0.3h-0.6
		v0.9h-0.5v-3.2h1.1C182.9,148.7,183.3,148.8,183.5,148.9z M183.1,150.2c0.1-0.1,0.2-0.3,0.2-0.5s-0.1-0.4-0.2-0.5
		c-0.1-0.1-0.3-0.1-0.6-0.1h-0.5v1.3h0.6C182.8,150.4,183,150.4,183.1,150.2z M184.9,151.1l-0.3,0.7H184l1.4-3.2h0.6l1.4,3.2h-0.6
		l-0.3-0.7H184.9z M186.3,150.6l-0.6-1.3l-0.6,1.3H186.3z M190.3,149.7c0,0.5-0.2,0.8-0.7,1l0.8,1.1h-0.7l-0.8-1.1h-0.7v1.1h-0.5
		v-3.2h1.2c0.5,0,0.8,0.1,1,0.2C190.2,149.1,190.3,149.3,190.3,149.7z M189.6,150.1c0.1-0.1,0.2-0.2,0.2-0.4c0-0.2-0.1-0.3-0.2-0.4
		c-0.1-0.1-0.3-0.1-0.6-0.1h-0.7v1.1h0.7C189.3,150.3,189.5,150.2,189.6,150.1z M192.3,149.2v2.7h-0.5v-2.7h-1v-0.5h2.4v0.5H192.3z
		 M194.3,151.8h-0.5v-3.2h0.8l1,2l1-2h0.8v3.2h-0.5v-2.5l-1.1,2.2h-0.3l-1.1-2.2V151.8z M200.5,148.7v0.5h-1.7v0.8h1.5v0.5h-1.5v0.8
		h1.7v0.5h-2.3v-3.2H200.5z M203.6,148.7h0.5v3.2h-0.6l-1.8-2.3v2.3h-0.5v-3.2h0.5l1.8,2.4V148.7z M206.2,149.2v2.7h-0.5v-2.7h-1
		v-0.5h2.4v0.5H206.2z M211.6,151.4c-0.3,0.3-0.7,0.5-1.2,0.5c-0.5,0-0.9-0.2-1.2-0.5c-0.3-0.3-0.5-0.7-0.5-1.2
		c0-0.5,0.2-0.9,0.5-1.2c0.3-0.3,0.7-0.5,1.2-0.5c0.5,0,0.9,0.2,1.2,0.5c0.3,0.3,0.5,0.7,0.5,1.2C212,150.7,211.9,151.1,211.6,151.4
		z M211.2,149.4c-0.2-0.2-0.5-0.3-0.8-0.3c-0.3,0-0.6,0.1-0.8,0.3c-0.2,0.2-0.3,0.5-0.3,0.8c0,0.3,0.1,0.6,0.3,0.8
		c0.2,0.2,0.5,0.3,0.8,0.3c0.3,0,0.6-0.1,0.8-0.3c0.2-0.2,0.3-0.5,0.3-0.8C211.5,149.9,211.4,149.6,211.2,149.4z M213.2,149.2v0.9
		h1.4v0.5h-1.4v1.3h-0.5v-3.2h2.1l0,0.5H213.2z M218.1,151.3c0.2,0,0.3,0,0.5-0.1c0.1-0.1,0.3-0.2,0.4-0.3l0.3,0.4
		c-0.3,0.4-0.7,0.6-1.2,0.6c-0.5,0-0.9-0.2-1.2-0.5c-0.3-0.3-0.5-0.7-0.5-1.2c0-0.5,0.2-0.9,0.5-1.2c0.3-0.3,0.7-0.5,1.2-0.5
		c0.5,0,0.9,0.2,1.2,0.5l-0.3,0.4c-0.2-0.1-0.3-0.2-0.4-0.3c-0.1-0.1-0.3-0.1-0.5-0.1c-0.3,0-0.6,0.1-0.8,0.3
		c-0.2,0.2-0.3,0.5-0.3,0.8c0,0.3,0.1,0.6,0.3,0.8C217.6,151.2,217.8,151.3,218.1,151.3z M222.6,151.4c-0.3,0.3-0.7,0.5-1.2,0.5
		s-0.9-0.2-1.2-0.5c-0.3-0.3-0.5-0.7-0.5-1.2c0-0.5,0.2-0.9,0.5-1.2c0.3-0.3,0.7-0.5,1.2-0.5s0.9,0.2,1.2,0.5
		c0.3,0.3,0.5,0.7,0.5,1.2C223.1,150.7,223,151.1,222.6,151.4z M222.2,149.4c-0.2-0.2-0.5-0.3-0.8-0.3c-0.3,0-0.6,0.1-0.8,0.3
		c-0.2,0.2-0.3,0.5-0.3,0.8c0,0.3,0.1,0.6,0.3,0.8c0.2,0.2,0.5,0.3,0.8,0.3c0.3,0,0.6-0.1,0.8-0.3c0.2-0.2,0.3-0.5,0.3-0.8
		C222.6,149.9,222.5,149.6,222.2,149.4z M224.3,151.8h-0.5v-3.2h0.8l1,2l1-2h0.8v3.2h-0.5v-2.5l-1.1,2.2h-0.3l-1.1-2.2V151.8z
		 M230.3,148.9c0.2,0.2,0.3,0.5,0.3,0.8c0,0.4-0.1,0.7-0.3,0.8c-0.2,0.2-0.6,0.3-1,0.3h-0.6v0.9h-0.5v-3.2h1.1
		C229.8,148.7,230.1,148.8,230.3,148.9z M230,150.2c0.1-0.1,0.2-0.3,0.2-0.5s-0.1-0.4-0.2-0.5c-0.1-0.1-0.3-0.1-0.6-0.1h-0.5v1.3
		h0.6C229.7,150.4,229.9,150.4,230,150.2z M232,151.1c0.1,0.2,0.3,0.3,0.6,0.3c0.2,0,0.4-0.1,0.6-0.3c0.1-0.2,0.2-0.4,0.2-0.7v-1.7
		h0.5v1.8c0,0.5-0.1,0.8-0.4,1c-0.2,0.2-0.6,0.4-1,0.4c-0.4,0-0.7-0.1-1-0.4c-0.3-0.2-0.4-0.6-0.4-1v-1.8h0.5v1.7
		C231.8,150.7,231.9,150.9,232,151.1z M236,149.2v2.7h-0.5v-2.7h-1v-0.5h2.4v0.5H236z M239.7,148.7v0.5H238v0.8h1.5v0.5H238v0.8h1.7
		v0.5h-2.3v-3.2H239.7z M243,149.7c0,0.5-0.2,0.8-0.7,1l0.8,1.1h-0.7l-0.8-1.1H241v1.1h-0.5v-3.2h1.2c0.5,0,0.8,0.1,1,0.2
		C242.9,149.1,243,149.3,243,149.7z M242.2,150.1c0.1-0.1,0.2-0.2,0.2-0.4c0-0.2-0.1-0.3-0.2-0.4c-0.1-0.1-0.3-0.1-0.6-0.1H241v1.1
		h0.7C241.9,150.3,242.1,150.2,242.2,150.1z M245.9,149.1c-0.2,0-0.3,0-0.4,0.1s-0.1,0.2-0.1,0.3s0,0.2,0.1,0.3
		c0.1,0.1,0.3,0.1,0.6,0.2c0.3,0.1,0.6,0.2,0.7,0.3c0.2,0.1,0.2,0.3,0.2,0.6c0,0.3-0.1,0.5-0.3,0.7s-0.5,0.3-0.8,0.3
		c-0.5,0-0.9-0.2-1.3-0.5l0.3-0.4c0.3,0.3,0.6,0.4,1,0.4c0.2,0,0.3,0,0.4-0.1c0.1-0.1,0.2-0.2,0.2-0.3s0-0.2-0.1-0.3
		c-0.1-0.1-0.3-0.1-0.5-0.2s-0.4-0.1-0.5-0.2c-0.1,0-0.2-0.1-0.3-0.2c-0.2-0.1-0.3-0.4-0.3-0.6s0.1-0.5,0.3-0.7
		c0.2-0.2,0.5-0.2,0.8-0.2c0.2,0,0.4,0,0.6,0.1c0.2,0.1,0.4,0.2,0.5,0.3l-0.3,0.4c-0.1-0.1-0.2-0.2-0.4-0.2
		C246.2,149.1,246.1,149.1,245.9,149.1z M249.2,151.3c0.2,0,0.3,0,0.5-0.1c0.1-0.1,0.3-0.2,0.4-0.3l0.3,0.4
		c-0.3,0.4-0.7,0.6-1.2,0.6c-0.5,0-0.9-0.2-1.2-0.5c-0.3-0.3-0.5-0.7-0.5-1.2c0-0.5,0.2-0.9,0.5-1.2c0.3-0.3,0.7-0.5,1.2-0.5
		c0.5,0,0.9,0.2,1.2,0.5l-0.3,0.4c-0.2-0.1-0.3-0.2-0.4-0.3c-0.1-0.1-0.3-0.1-0.5-0.1c-0.3,0-0.6,0.1-0.8,0.3
		c-0.2,0.2-0.3,0.5-0.3,0.8c0,0.3,0.1,0.6,0.3,0.8C248.7,151.2,248.9,151.3,249.2,151.3z M251.1,148.7h0.5v3.2h-0.5V148.7z
		 M254.7,148.7v0.5h-1.7v0.8h1.5v0.5h-1.5v0.8h1.7v0.5h-2.3v-3.2H254.7z M257.8,148.7h0.5v3.2h-0.6l-1.8-2.3v2.3h-0.5v-3.2h0.5
		l1.8,2.4V148.7z M260.7,151.3c0.2,0,0.3,0,0.5-0.1c0.1-0.1,0.3-0.2,0.4-0.3l0.3,0.4c-0.3,0.4-0.7,0.6-1.2,0.6
		c-0.5,0-0.9-0.2-1.2-0.5c-0.3-0.3-0.5-0.7-0.5-1.2c0-0.5,0.2-0.9,0.5-1.2c0.3-0.3,0.7-0.5,1.2-0.5c0.5,0,0.9,0.2,1.2,0.5l-0.3,0.4
		c-0.2-0.1-0.3-0.2-0.4-0.3c-0.1-0.1-0.3-0.1-0.5-0.1c-0.3,0-0.6,0.1-0.8,0.3c-0.2,0.2-0.3,0.5-0.3,0.8c0,0.3,0.1,0.6,0.3,0.8
		C260.1,151.2,260.4,151.3,260.7,151.3z M264.8,148.7v0.5h-1.7v0.8h1.5v0.5h-1.5v0.8h1.7v0.5h-2.3v-3.2H264.8z M215.1,91.1
		c1.6,5.3,6.1,6.2,10.8,6.3c7.4,0.1,14.3-1.7,20.5-5.5c5.1-3,8.6-7.1,10.6-12.1c5.1-12.7,1.4-25.3-9.7-33.7
		c-7.4-5.6-15.9-7.9-25.2-6.8c-8.6,1-16.3,4.7-23,10.9c-1.6,1.5-2.8,3.2-3.9,4.8c-7.7,11.5-8.5,23.1-2.4,34.3
		c4.1,7.6,10.6,13.2,19.4,16.6c4.2,1.7,8.7,2.5,13.5,2.5c2,0,4-0.1,6.1-0.4c7.5-1,14.5-3.5,20.6-7.6c0.2-0.1,0.9-0.4,1-1.2
		c0.1-0.3,0-0.9-0.5-1.3l-0.1-0.1c-0.2-0.3-0.5-0.8-1.2-0.9c-0.5-0.1-1,0.1-1.4,0.4c-0.6,0.5-1.2,0.9-1.8,1.2
		c-6.4,3.6-13.9,5.6-21.3,5.8c-8,0-11.5-0.9-17.5-4.3c-11-6.3-17-17.9-15-30.2c1.7-10.2,7.8-17.9,17.4-22.9c5.7-3,11.8-4,18.1-3.1
		c5.2,0.7,10.2,2.8,14.7,6.2c8.1,6,11.4,13.6,9.8,23.1c-2.1,12.7-12.3,17.7-20.7,19.6c0-0.3,0-2.3,0-2.5c0-0.2,0-1.1,0-1.2
		c0-1.7,0-2,0-2.9c0-2.5,0-2.7,0-4c0-0.6,0-1.3,0-2.6c0-1.4,0-2.7,0-4c0-1.9,0-4.4,0-6.5c0-3.5-0.5-3.5-3.1-3.6l-0.3,0
		c-0.1,0-0.1,0-0.2,0c-1.3,0-5.8-0.1-11.6,0c-3.4,0.1-4.5,0.2-4.5,3.1c0,0.1,0,2.3,0,2.4c0,6.2,0,6.2,0,9.4c0,0.8,0,2,0,2.6
		C214.2,86.5,213.9,87.2,215.1,91.1z M279.4,151.5V150c0-0.2-0.2-0.3-0.3-0.3h-9.9c-0.2,0-0.3,0.2-0.3,0.3v1.4
		c0,0.2,0.2,0.3,0.3,0.3h9.9C279.2,151.8,279.4,151.6,279.4,151.5z"/>
	<rect x="0.2" y="-1" class="st4" width="311.8" height="204.1"/>
</g>
</svg>
